# xmcd
#
# Track frame offsets:
#       150
#       17422
#       36489
#       58139
#       79307
#       98619
#       117539
#       135167
#       150109
#       162584
#       180772
#       200107
#       221699
#       237309
#       260617
#       282097
#       301207
#       324137
#
# Disc length: 4678 seconds
#
# Revision: 7
# Processed by: cddbd v1.5.1PL0 Copyright (c) Steve Scherf et al.
# Submitted via: WhereIsIt 3.52
#
DISCID=ed124412
DTITLE=Joe Cocker - Greatest Hits
DYEAR=1998
DGENRE=Blues
TTITLE0=Summer In The City
TTITLE1=Could You Be Loved
TTITLE2=The Simple Things
TTITLE3=N'oubliez Jamais
TTITLE4=Have A Little Faith In Me
TTITLE5=What Becomes Of The Broken-hearted
TTITLE6=Don't Let Me Be Misunderstood
TTITLE7=Delta Lady
TTITLE8=You Are So Beautiful
TTITLE9=That's All I Need To Know (Live) Duet With Eros Ramazzotti
TTITLE10=Let The Healing Begin
TTITLE11=Tonight
TTITLE12=Night Calls
TTITLE13=Don't You Love Me Anymore
TTITLE14=When The Night Comes
TTITLE15=You Can Leave Your Hat On
TTITLE16=Unchain My Heart
TTITLE17=With A Little Help From My Friends (Live)
EXTD=
EXTT0=
EXTT1=
EXTT2=
EXTT3=
EXTT4=
EXTT5=
EXTT6=
EXTT7=
EXTT8=
EXTT9=
EXTT10=
EXTT11=
EXTT12=
EXTT13=
EXTT14=
EXTT15=
EXTT16=
EXTT17=
PLAYORDER=
